<?xml version="1.0" encoding="UTF-8" standalone="no"?>
<svg
   xmlns:dc="http://purl.org/dc/elements/1.1/"
   xmlns:cc="http://creativecommons.org/ns#"
   xmlns:rdf="http://www.w3.org/1999/02/22-rdf-syntax-ns#"
   xmlns:svg="http://www.w3.org/2000/svg"
   xmlns="http://www.w3.org/2000/svg"
   xmlns:xlink="http://www.w3.org/1999/xlink"
   xmlns:sodipodi="http://sodipodi.sourceforge.net/DTD/sodipodi-0.dtd"
   xmlns:inkscape="http://www.inkscape.org/namespaces/inkscape"
   height="300"
   id="svg1422"
   inkscape:version="0.48.0 r9654"
   sodipodi:docname="elevator.svg"
   sodipodi:version="0.32"
   width="297.97501"
   inkscape:output_extension="org.inkscape.output.svg.inkscape"
   inkscape:export-filename="/home/joanna/gfx/vector/aiga/aiga_elevator_.png"
   inkscape:export-xdpi="36.848728"
   inkscape:export-ydpi="36.848728"
   version="1.1">
  <metadata
     id="metadata3">
    <rdf:RDF>
      <cc:Work
         rdf:about="">
        <dc:title></dc:title>
        <dc:description>EPS converted from  http://aiga.org</dc:description>
        <dc:subject>
          <rdf:Bag>
            <rdf:li>symbol</rdf:li>
            <rdf:li>mapsym</rdf:li>
          </rdf:Bag>
        </dc:subject>
        <dc:publisher>
          <cc:Agent
             rdf:about="http://www.openclipart.org/">
            <dc:title>Open Clip Art Library</dc:title>
          </cc:Agent>
        </dc:publisher>
        <dc:creator>
          <cc:Agent>
            <dc:title>Jean-Victor Balin</dc:title>
          </cc:Agent>
        </dc:creator>
        <dc:rights>
          <cc:Agent>
            <dc:title>Jean-Victor Balin</dc:title>
          </cc:Agent>
        </dc:rights>
        <dc:date />
        <dc:format>image/svg+xml</dc:format>
        <dc:type
           rdf:resource="http://purl.org/dc/dcmitype/StillImage" />
        <cc:license
           rdf:resource="http://web.resource.org/cc/PublicDomain" />
        <dc:language>en</dc:language>
      </cc:Work>
      <cc:License
         rdf:about="http://web.resource.org/cc/PublicDomain">
        <cc:permits
           rdf:resource="http://web.resource.org/cc/Reproduction" />
        <cc:permits
           rdf:resource="http://web.resource.org/cc/Distribution" />
        <cc:permits
           rdf:resource="http://web.resource.org/cc/DerivativeWorks" />
      </cc:License>
    </rdf:RDF>
  </metadata>
  <sodipodi:namedview
     bordercolor="#666666"
     borderopacity="1.0"
     id="base"
     inkscape:current-layer="svg1422"
     inkscape:cx="114.39488"
     inkscape:cy="145.37573"
     inkscape:pageopacity="0.0"
     inkscape:pageshadow="2"
     inkscape:window-height="1576"
     inkscape:window-width="2505"
     inkscape:window-x="0"
     inkscape:window-y="0"
     inkscape:zoom="3.4732669"
     pagecolor="#ffffff"
     showgrid="false"
     inkscape:window-maximized="1"
     showguides="true"
     inkscape:guide-bbox="true">
    <sodipodi:guide
       orientation="1,0"
       position="41.171613,141.9413"
       id="guide3861" />
    <sodipodi:guide
       orientation="1,0"
       position="257.10665,130.42476"
       id="guide3863" />
    <sodipodi:guide
       orientation="0,1"
       position="158.92818,255.95499"
       id="guide3865" />
    <sodipodi:guide
       orientation="0,1"
       position="139.06216,41.459526"
       id="guide3867" />
  </sodipodi:namedview>
  <defs
     id="defs1424">
    <linearGradient
       id="linearGradient3881">
      <stop
         style="stop-color:#999999;stop-opacity:1;"
         offset="0"
         id="stop3883" />
      <stop
         style="stop-color:#ffffff;stop-opacity:1;"
         offset="1"
         id="stop3885" />
    </linearGradient>
    <inkscape:perspective
       sodipodi:type="inkscape:persp3d"
       inkscape:vp_x="0 : 243.7935 : 1"
       inkscape:vp_y="0 : 1000 : 0"
       inkscape:vp_z="297.97501 : 243.7935 : 1"
       inkscape:persp3d-origin="148.9875 : 162.529 : 1"
       id="perspective43" />
    <marker
       id="ArrowEnd"
       markerHeight="3"
       markerUnits="strokeWidth"
       markerWidth="4"
       orient="auto"
       refX="0"
       refY="5"
       viewBox="0 0 10 10">
      <path
         d="M 0,0 10,5 0,10 z"
         id="path1427"
         inkscape:connector-curvature="0" />
    </marker>
    <marker
       id="ArrowStart"
       markerHeight="3"
       markerUnits="strokeWidth"
       markerWidth="4"
       orient="auto"
       refX="10"
       refY="5"
       viewBox="0 0 10 10">
      <path
         d="M 10,0 0,5 10,10 z"
         id="path1430"
         inkscape:connector-curvature="0" />
    </marker>
    <linearGradient
       inkscape:collect="always"
       xlink:href="#linearGradient3881"
       id="linearGradient3887"
       x1="41.171612"
       y1="151.29274"
       x2="257.10666"
       y2="151.29274"
       gradientUnits="userSpaceOnUse"
       gradientTransform="matrix(1.0376881,0,0,1,-1.5516804,0)" />
    <linearGradient
       inkscape:collect="always"
       xlink:href="#linearGradient3881-6"
       id="linearGradient3887-6"
       x1="41.171612"
       y1="151.29274"
       x2="257.10666"
       y2="151.29274"
       gradientUnits="userSpaceOnUse" />
    <linearGradient
       id="linearGradient3881-6">
      <stop
         style="stop-color:#999999;stop-opacity:1;"
         offset="0"
         id="stop3883-7" />
      <stop
         style="stop-color:#ffffff;stop-opacity:1;"
         offset="1"
         id="stop3885-7" />
    </linearGradient>
    <linearGradient
       gradientTransform="translate(110.93504,-2.0751969e-8)"
       y2="151.29274"
       x2="257.10666"
       y1="151.29274"
       x1="41.171612"
       gradientUnits="userSpaceOnUse"
       id="linearGradient3904"
       xlink:href="#linearGradient3881-6"
       inkscape:collect="always" />
  </defs>
  <g
     id="g1434"
     transform="translate(0,-187.58701)">
    <path
       inkscape:connector-curvature="0"
       style="fill:#000000;stroke:none"
       id="path1436"
       d="M 0,448.039 0,230.038 0.0460052,230.03 c 0,-21.742 16.7209948,-39.801 39.7209948,-39.801 l 218.5,0 c 22.25,0 39.7,17.809 39.7,39.809 l 0,218.001 0.008,0.055 c 0.042,23.194 -17.708,39.489 -39.458,39.489 l -218.75,0 0,0.004 C 18.017,487.587 0,470.288 0,448.039 z" />
    <path
       inkscape:connector-curvature="0"
       style="fill:#ffffff;stroke:none"
       id="path1438"
       d="m 41.174,231.902 215.619,0 0,214.369 -215.619,0 0,-214.369 z" />
  </g>
  <g
     id="g1446"
     transform="translate(0,-187.58701)">
    <g
       id="g1448">
      <path
         inkscape:connector-curvature="0"
         style="fill:#000000;stroke:none"
         id="path1450"
         d="m 246.572,354.695 c 0,4.344 -3.493,7.365 -7.336,7.365 0,0 -48.219,0 -48.282,0 -3.791,0 -7.345,-3.073 -7.345,-7.365 l 0,-52.469 c 0,-6.02 4.825,-10.137 10.095,-10.137 -0.048,0 42.75,0 42.75,0 5.75,0 10.118,4.575 10.118,10.137 l 0,52.469 z" />
      <g
         id="g1452">
        <path
           inkscape:connector-curvature="0"
           style="fill:#000000;stroke:none"
           id="path1454"
           d="m 234.767,360.143 -18.372,0 0,70.958 c 0,12.589 18.372,12.589 18.372,0 l 0,-70.958 z" />
        <path
           inkscape:connector-curvature="0"
           style="fill:#000000;stroke:none"
           id="path1456"
           d="m 213.602,360.143 -18.372,0 0,70.958 c 0,12.493 18.372,12.493 18.372,0 l 0,-70.958 z" />
      </g>
      <g
         id="g1458">
        <path
           inkscape:connector-curvature="0"
           style="fill:#000000;stroke:none"
           id="path1460"
           d="m 215.267,287.828 c 7.615,0 13.789,-6.174 13.789,-13.789 0,-7.615 -6.174,-13.789 -13.789,-13.789 -7.615,0 -13.789,6.174 -13.789,13.789 0,7.615 6.174,13.789 13.789,13.789 z" />
        <path
           inkscape:connector-curvature="0"
           style="fill:#000000;stroke:none"
           id="path1462"
           d="M 215.267,274.039" />
      </g>
    </g>
    <g
       id="g1464">
      <path
         inkscape:connector-curvature="0"
         style="fill:#000000;stroke:none"
         id="path1466"
         d="m 180.572,354.695 c 0,4.344 -3.493,7.365 -7.336,7.365 0,0 -48.219,0 -48.282,0 -3.791,0 -7.345,-3.073 -7.345,-7.365 l 0,-52.469 c 0,-6.02 4.825,-10.137 10.095,-10.137 -0.048,0 42.75,0 42.75,0 5.75,0 10.118,4.575 10.118,10.137 l 0,52.469 z" />
      <g
         id="g1468">
        <path
           inkscape:connector-curvature="0"
           style="fill:#000000;stroke:none"
           id="path1470"
           d="m 168.767,360.143 -18.372,0 0,70.958 c 0,12.589 18.372,12.589 18.372,0 l 0,-70.958 z" />
        <path
           inkscape:connector-curvature="0"
           style="fill:#000000;stroke:none"
           id="path1472"
           d="m 147.602,360.143 -18.372,0 0,70.958 c 0,12.493 18.372,12.493 18.372,0 l 0,-70.958 z" />
      </g>
      <g
         id="g1474">
        <path
           inkscape:connector-curvature="0"
           style="fill:#000000;stroke:none"
           id="path1476"
           d="m 149.267,287.828 c 7.615,0 13.789,-6.174 13.789,-13.789 0,-7.615 -6.174,-13.789 -13.789,-13.789 -7.615,0 -13.789,6.174 -13.789,13.789 0,7.615 6.174,13.789 13.789,13.789 z" />
        <path
           inkscape:connector-curvature="0"
           style="fill:#000000;stroke:none"
           id="path1478"
           d="M 149.267,274.039" />
      </g>
    </g>
    <g
       id="g1480">
      <path
         inkscape:connector-curvature="0"
         style="fill:#000000;stroke:none"
         id="path1482"
         d="m 114.572,354.695 c 0,4.344 -3.493,7.365 -7.336,7.365 0,0 -48.219,0 -48.2815,0 -3.7916,0 -7.345,-3.073 -7.345,-7.365 l 0,-52.469 c 0,-6.02 4.8243,-10.137 10.095,-10.137 -0.049,0 42.7495,0 42.7495,0 5.75,0 10.118,4.575 10.118,10.137 l 0,52.469 z" />
      <g
         id="g1484">
        <path
           inkscape:connector-curvature="0"
           style="fill:#000000;stroke:none"
           id="path1486"
           d="m 102.767,360.143 -18.3725,0 0,70.958 c 0,12.589 18.3725,12.589 18.3725,0 l 0,-70.958 z" />
        <path
           inkscape:connector-curvature="0"
           style="fill:#000000;stroke:none"
           id="path1488"
           d="m 81.6015,360.143 -18.371,0 0,70.958 c 0,12.493 18.371,12.493 18.371,0 l 0,-70.958 z" />
      </g>
      <g
         id="g1490">
        <path
           inkscape:connector-curvature="0"
           style="fill:#000000;stroke:none"
           id="path1492"
           d="m 83.267,287.828 c 7.6151,0 13.7886,-6.174 13.7886,-13.789 0,-7.615 -6.1735,-13.789 -13.7886,-13.789 -7.6151,0 -13.7886,6.174 -13.7886,13.789 0,7.615 6.1735,13.789 13.7886,13.789 z" />
        <path
           inkscape:connector-curvature="0"
           style="fill:#000000;stroke:none"
           id="path1494"
           d="M 83.267,274.039" />
      </g>
    </g>
  </g>
  <rect
     style="fill:url(#linearGradient3887);fill-opacity:1;stroke:#000000;stroke-width:4.0746789;stroke-linecap:round;stroke-linejoin:round;stroke-miterlimit:4;stroke-opacity:1;stroke-dasharray:none"
     id="rect3869"
     width="108.95725"
     height="214.49547"
     x="41.171612"
     y="44.04501"
     ry="12.380276" />
  <rect
     style="fill:url(#linearGradient3904);fill-opacity:1;stroke:#000000;stroke-width:4;stroke-linecap:round;stroke-linejoin:round;stroke-miterlimit:4;stroke-opacity:1;stroke-dasharray:none"
     id="rect3869-4"
     width="105"
     height="214.49547"
     x="152.10664"
     y="44.04501"
     ry="12.380276" />
</svg>
